<svg width="500" height="500" viewBox="0 0 500 500" fill="none" xmlns="http://www.w3.org/2000/svg">
<path d="M250.056 121.806C179.113 121.806 121.891 179.042 121.891 250C121.891 320.958 179.113 378.194 250.056 378.194C320.998 378.194 378.221 320.958 378.221 250C378.221 179.042 320.998 121.806 250.056 121.806ZM250.056 333.343C204.211 333.343 166.732 295.967 166.732 250C166.732 204.033 204.099 166.657 250.056 166.657C296.012 166.657 333.38 204.033 333.38 250C333.38 295.967 295.901 333.343 250.056 333.343ZM413.358 116.563C413.358 133.186 399.972 146.463 383.463 146.463C366.843 146.463 353.569 133.075 353.569 116.563C353.569 100.05 366.955 86.6618 383.463 86.6618C399.972 86.6618 413.358 100.05 413.358 116.563ZM498.243 146.91C496.347 106.856 487.2 71.3768 457.864 42.1455C428.639 12.9142 393.168 3.76548 353.123 1.75722C311.852 -0.585741 188.148 -0.585741 146.877 1.75722C106.944 3.65391 71.4724 12.8026 42.1361 42.0339C12.7998 71.2652 3.76464 106.744 1.75683 146.798C-0.585611 188.079 -0.585611 311.81 1.75683 353.09C3.6531 393.144 12.7998 428.623 42.1361 457.855C71.4724 487.086 106.832 496.234 146.877 498.243C188.148 500.586 311.852 500.586 353.123 498.243C393.168 496.346 428.639 487.197 457.864 457.855C487.089 428.623 496.235 393.144 498.243 353.09C500.586 311.81 500.586 188.19 498.243 146.91ZM444.925 397.384C436.224 419.251 419.381 436.098 397.407 444.912C364.501 457.966 286.419 454.954 250.056 454.954C213.692 454.954 135.499 457.855 102.705 444.912C80.8422 436.21 63.9989 419.363 55.1868 397.384C42.1361 364.471 45.1478 286.372 45.1478 250C45.1478 213.628 42.2476 135.418 55.1868 102.616C63.8873 80.7486 80.7306 63.9016 102.705 55.0876C135.611 42.0339 213.692 45.0463 250.056 45.0463C286.419 45.0463 364.612 42.1455 397.407 55.0876C419.269 63.79 436.113 80.6371 444.925 102.616C457.975 135.529 454.964 213.628 454.964 250C454.964 286.372 457.975 364.582 444.925 397.384Z" fill="#1174AF"/>
</svg>
