<svg width="38" height="20" viewBox="0 0 38 20" fill="none" xmlns="http://www.w3.org/2000/svg">
<path fill-rule="evenodd" clip-rule="evenodd" d="M23.8095 5.06861C23.257 5.17433 22.8677 6.32844 23.1846 6.9099C23.3205 7.1566 23.3114 7.19181 22.6141 8.50452C22.2247 9.2357 21.7448 10.0727 21.5455 10.3546C21.1471 10.9184 20.6037 11.4382 20.3954 11.4382C19.8702 11.4382 21.1561 8.23137 21.1561 8.23137C21.1561 8.23137 21.4594 7.61266 21.2746 7.28871C21.1555 7.07989 20.7845 6.9075 20.7845 6.9075C20.7845 6.9075 20.4139 6.7198 20.1585 6.64918C19.8436 6.56209 19.6541 6.54261 19.3269 6.54869C18.8706 6.55716 18.5843 6.60155 18.1859 6.79537C16.1846 7.79091 14.6542 10.7775 15.3786 12.284C15.605 12.7509 15.9219 12.9359 16.4834 12.9359C17.072 12.9359 17.4886 12.7333 18.1134 12.1342C18.18 12.0733 18.2441 12.0143 18.3038 11.9594C18.5198 11.7606 18.6788 11.6144 18.693 11.6144C18.7111 11.6144 18.7201 11.7554 18.7201 11.9228C18.7201 12.5219 19.0733 12.9359 19.5804 12.9359C20.4679 12.9359 21.5546 11.8347 22.6594 9.80837C23.3838 8.47809 23.7189 7.87899 23.8095 7.76448C23.9181 7.63233 24.6879 7.98471 24.6969 8.16093C24.6969 8.23137 24.4795 8.62782 24.217 9.04191C23.1484 10.7511 22.9401 11.5351 23.3385 12.3897C23.6283 13.0152 24.2622 13.1738 25.2222 12.8478C25.856 12.6276 26.4537 12.2311 27.2778 11.4911C27.5602 11.2374 27.6219 11.189 27.8863 11.189C28.1507 11.189 28.2991 11.7332 28.2991 11.7332C28.2991 11.7332 28.5454 12.5759 28.979 12.7263C29.5468 12.9234 30.1892 12.7587 30.5595 12.2599C31.0777 11.5615 31.7925 10.3362 32.4933 9.1776C32.5157 9.14062 32.5391 9.1003 32.5638 9.0579L32.5642 9.05725C32.6237 8.95487 32.6915 8.83844 32.7746 8.71596C33.173 8.14329 33.6258 7.76448 34.1873 7.50897C34.8302 7.22703 35.1833 7.22703 35.2558 7.51776C35.3283 7.80849 35.0747 8.54853 34.7487 9.02427C34.4136 9.49122 33.6983 10.1167 32.8742 10.6541C31.9776 11.2444 31.7875 11.5351 32.0954 11.8347C32.2221 11.958 32.3489 11.9756 32.8923 11.9228C33.6801 11.8523 33.9156 11.9844 33.9971 12.5483C34.0423 12.883 34.0243 12.9095 33.7888 12.9976C31.3166 13.8962 30.6103 14.2927 29.4059 15.482C28.1743 16.6978 27.7577 17.6228 28.0475 18.495C28.3916 19.4994 29.5145 19.7196 30.8276 19.0501C32.5573 18.1779 35.1472 14.0459 35.1472 14.0459C35.1472 14.0459 35.537 13.4458 36.0066 13.195C36.512 12.9417 37.1739 12.6984 37.5254 12.6081C37.8769 12.5178 37.95 12.4401 37.9795 12.3473C38.031 12.1858 37.9847 12.038 37.8487 11.9335C37.6318 11.7668 37.2822 11.885 36.8059 12.0461C36.623 12.108 36.4215 12.1761 36.2015 12.2369L35.3831 12.5078L35.2649 12.1959C35.0747 11.7554 34.6672 11.3237 34.2868 11.1563C34.142 11.0947 34.0243 11.0242 34.0243 10.9977C34.0333 10.9713 34.4022 10.7174 34.6219 10.5132C35.7742 9.44232 36.7425 8.08308 36.4066 7.2006C36.0706 6.31813 35.6424 6.36194 35.2558 6.31813C34.8818 6.27574 34.4227 6.36368 34.2959 6.40773C33.5353 6.6456 32.8108 7.22703 32.2946 8.01114C32.1427 8.17089 31.7116 8.96268 31.2662 9.78051L30.4783 11.1087C30.4783 11.1087 30.0632 11.9232 29.6333 11.8347C29.1337 11.7319 29.4149 10.5748 29.4149 10.5748C29.4149 10.5748 29.4826 10.2139 29.5665 9.99516C29.7879 9.41833 30.1666 9.05955 30.1666 9.05955C30.1666 9.05955 32.4033 6.92752 32.2221 6.53988C32.1226 6.32844 31.7805 6.25029 31.543 6.3813C31.2962 6.51743 31.1792 6.67442 30.9922 6.92551C30.9318 7.00656 30.8641 7.09743 30.7823 7.2006C30.4382 7.61469 29.9945 8.12565 29.7862 8.3283C29.4239 8.68067 29.4511 8.46045 29.4511 8.46045C29.4511 8.46045 29.9073 7.43732 29.5326 6.998C29.2467 6.66277 28.894 6.58415 28.4507 6.63664C28.1966 6.66673 28.0453 6.69619 27.894 6.8749C27.7384 7.05852 27.7631 7.47179 27.7631 7.47179C27.7631 7.47179 27.806 7.78146 27.8401 8.01114C27.893 8.368 27.9569 8.9274 27.9569 8.9274C27.9569 8.9274 28.0429 9.45637 27.8863 9.74902C27.7972 9.91549 27.6219 10.1255 27.6219 10.1255C27.1872 10.5836 26.1911 11.3765 25.8107 11.5615C25.1859 11.8699 24.6335 11.6497 24.7332 11.1475C24.7875 10.8656 25.2674 9.88766 25.8742 8.79525C26.3903 7.8702 26.345 7.74684 25.3489 7.23589C25.0863 7.10374 24.7875 6.90109 24.6788 6.79537C24.4886 6.59274 24.4886 6.56631 24.6607 5.66769C24.7422 5.22719 24.3709 4.96289 23.8095 5.06861ZM19.1096 9.7203C19.7434 8.47809 19.9608 7.65876 19.6981 7.40325C19.5623 7.2711 19.1911 7.27989 18.8922 7.43847C18.4847 7.64991 17.6787 8.56617 17.3889 9.15641C16.909 10.1255 16.6826 11.359 16.9271 11.5968C17.1535 11.817 17.6516 11.6849 18.05 11.3061C18.2311 11.1387 18.8831 10.1608 19.1096 9.7203ZM32.5482 15.9753C33.01 15.3763 33.7526 14.1077 33.7526 13.9138C33.7526 13.7641 33.5805 13.7993 32.9195 14.0812C31.5068 14.6715 29.8314 16.0723 29.2519 17.1382C28.944 17.6933 28.8716 18.1954 29.0617 18.3805C29.2247 18.539 29.7319 18.5038 30.1394 18.3012C30.5921 18.0809 31.9143 16.8035 32.5482 15.9753Z" fill="white"/>
<path d="M8.2518 0.601962C5.98845 1.03133 4.72615 2.23767 3.81278 4.28918C3.58404 4.80296 3.54223 5.13835 3.53826 5.69866C3.53413 6.28015 3.54119 6.48755 3.73325 7.03791C3.84088 7.34635 3.97166 7.62205 4.15401 7.92824C4.34445 8.24801 5.14692 9.16718 5.14692 9.16718C5.14692 9.16718 6.58556 10.4868 6.495 11.958C6.39226 13.6272 4.66576 14.9446 3.09913 14.6627C2.62824 14.5745 2.10301 14.0812 1.96717 13.5879C1.75889 12.8655 2.03962 12.2223 3.07196 11.1299C3.4523 10.7246 3.52475 10.6013 3.44325 10.4868C3.29836 10.2577 2.55884 10.3864 2.02963 10.5415C1.31381 10.7513 0.443673 11.5472 0.16509 12.2821C0.00725703 12.6984 -0.109682 13.548 0.16509 14.2809C0.827872 16.0488 2.86369 16.2308 4.95555 15.4292C6.80292 14.7155 8.17933 13.2178 8.35143 11.7378C8.42383 11.1211 8.2971 10.381 8.0435 9.81716C7.88049 9.48243 6.76665 7.94949 6.58556 7.82613C6.46784 7.73805 5.79772 6.71608 5.69811 6.46059C5.19958 5.18202 5.827 3.80325 6.93875 2.71635C7.70612 1.96613 8.32576 1.49531 9.42129 1.49531C9.80165 1.49531 10.0771 1.52168 10.3527 1.77368C11.0627 2.42299 10.4979 3.44364 10.0721 4.213C10.021 4.30544 9.97181 4.39425 9.92712 4.47835C9.51052 5.26243 9.51051 5.5003 9.91802 5.40339C10.4252 5.28005 11.4303 4.28452 11.856 3.47401C12.1367 2.94541 12.1729 2.1349 11.9465 1.63273C11.4756 0.601961 9.72481 0.322523 8.2518 0.601962Z" fill="white"/>
<path d="M10.4734 6.8218C10.0324 7.04208 9.48723 7.50864 9.21473 8.16972C9.04668 8.57741 9.00757 9.12152 9.02456 9.27978C9.04155 9.43804 9.11509 10.0286 9.47737 10.7334C10.3286 12.3897 10.6817 12.98 10.8538 13.0064C10.9444 13.024 11.3066 12.7773 11.3066 12.7773C11.3066 12.7773 11.7537 12.4391 12.0401 12.2223C12.2307 12.078 12.3976 11.9622 12.5554 11.8528C12.8488 11.6494 13.1107 11.4678 13.4346 11.1651L13.4595 11.1419C14.5037 10.1664 15.3796 9.3481 15.5084 8.12565C15.5451 7.77772 15.551 7.55507 15.3786 7.25611C15.2165 6.97496 14.947 6.79537 14.7387 6.71608C14.2497 6.51345 13.5614 6.74251 12.9366 7.31518L12.4566 7.75563L12.3933 7.50897C12.2936 7.11252 12.0601 6.81069 11.7503 6.71608C11.4404 6.62148 10.9145 6.60153 10.4734 6.8218Z" fill="#FD5555"/>
<path d="M19.0371 14.6186C14.1108 14.9798 9.55582 15.8256 5.25437 17.1735C3.60624 17.6933 3.15346 17.8871 2.82745 18.1954C2.40184 18.6183 2.58295 19.2615 3.18968 19.4553C3.5338 19.561 3.91413 19.4817 4.45747 19.191C5.10948 18.8386 7.90766 17.8343 9.66448 17.3233C15.8857 15.5172 22.7409 14.8917 25.9013 15.8432C26.5624 16.0458 26.8702 15.9842 26.8702 15.667C26.8702 14.9006 22.7318 14.3543 19.0371 14.6186Z" fill="white"/>
</svg>
