<svg width="500" height="500" viewBox="0 0 500 500" fill="none" xmlns="http://www.w3.org/2000/svg">
<path d="M425.112 72.6563C378.348 25.7812 316.071 0 249.888 0C113.281 0 2.12054 111.161 2.12054 247.768C2.12054 291.406 13.5045 334.04 35.1563 371.652L0 500L131.362 465.513C167.522 485.268 208.259 495.647 249.777 495.647H249.888C386.384 495.647 500 384.487 500 247.879C500 181.696 471.875 119.531 425.112 72.6563ZM249.888 453.906C212.835 453.906 176.562 443.973 144.978 425.223L137.5 420.759L59.5982 441.183L80.3571 365.179L75.4464 357.366C54.7991 324.554 43.9732 286.719 43.9732 247.768C43.9732 134.263 136.384 41.8527 250 41.8527C305.022 41.8527 356.696 63.2812 395.536 102.232C434.375 141.183 458.259 192.857 458.147 247.879C458.147 361.496 363.393 453.906 249.888 453.906ZM362.835 299.665C356.696 296.54 326.228 281.585 320.536 279.576C314.844 277.455 310.714 276.451 306.585 282.701C302.455 288.951 290.625 302.79 286.942 307.031C283.371 311.161 279.688 311.719 273.549 308.594C237.165 290.402 213.281 276.116 189.286 234.933C182.924 223.996 195.647 224.777 207.478 201.116C209.487 196.987 208.482 193.415 206.92 190.29C205.357 187.165 192.969 156.696 187.835 144.308C182.813 132.254 177.679 133.929 173.884 133.705C170.313 133.482 166.183 133.482 162.054 133.482C157.924 133.482 151.228 135.045 145.536 141.183C139.844 147.433 123.884 162.388 123.884 192.857C123.884 223.326 146.094 252.79 149.107 256.92C152.232 261.049 192.746 323.549 254.911 350.446C294.196 367.411 309.598 368.862 329.241 365.96C341.183 364.174 365.848 351.004 370.982 336.496C376.116 321.987 376.116 309.598 374.554 307.031C373.103 304.241 368.973 302.679 362.835 299.665Z" fill="black"/>
</svg>
