<svg width="420" height="206" viewBox="0 0 420 206" fill="none" xmlns="http://www.w3.org/2000/svg">
<path d="M33.4455 127.662L98.8823 169.732V206L0 142.169V113.155L98.8823 49.3239V85.5915L33.4455 127.662Z" fill="#FFA600"/>
<path d="M222.428 0L152.629 203.099H114.821L184.62 0H222.428Z" fill="#FF4000"/>
<path d="M420 139.137C420 145.682 419.148 151.59 417.444 156.86C415.825 162.045 413.652 166.635 410.926 170.631C408.199 174.626 405.004 178.026 401.34 180.831C397.676 183.636 393.885 185.931 389.966 187.716C386.046 189.501 382.042 190.819 377.952 191.669C373.947 192.519 370.156 192.944 366.577 192.944H238.387V159.793H366.577C372.967 159.793 377.909 157.923 381.402 154.183C384.981 150.443 386.77 145.427 386.77 139.137C386.77 136.077 386.302 133.272 385.364 130.722C384.427 128.172 383.064 125.962 381.275 124.092C379.571 122.222 377.44 120.777 374.884 119.757C372.413 118.737 369.644 118.227 366.577 118.227H290.149C284.781 118.227 278.987 117.292 272.767 115.422C266.547 113.467 260.753 110.364 255.385 106.114C250.103 101.864 245.672 96.2962 242.094 89.411C238.6 82.5258 236.854 74.1106 236.854 64.1653C236.854 54.2201 238.6 45.8474 242.094 39.0472C245.672 32.162 250.103 26.5944 255.385 22.3443C260.753 18.0091 266.547 14.9066 272.767 13.0365C278.987 11.0815 284.781 10.1039 290.149 10.1039H403.257V43.2548H290.149C283.844 43.2548 278.902 45.1673 275.323 48.9924C271.83 52.8175 270.083 57.8752 270.083 64.1653C270.083 70.5405 271.83 75.5981 275.323 79.3382C278.902 82.9933 283.844 84.8209 290.149 84.8209H366.833C370.411 84.9059 374.203 85.4159 378.207 86.3509C382.212 87.2009 386.174 88.561 390.093 90.431C394.098 92.3011 397.889 94.6811 401.468 97.5712C405.047 100.376 408.199 103.776 410.926 107.771C413.737 111.767 415.953 116.357 417.572 121.542C419.191 126.727 420 132.592 420 139.137Z" fill="white"/>
</svg>
