<svg width="540" height="540" viewBox="0 0 540 540" fill="none" xmlns="http://www.w3.org/2000/svg">
<rect width="540" height="540" rx="80" fill="black"/>
<path d="M143.009 250.057L68.2236 298.254L143.009 346.451V388L30 314.873V281.634L143.009 208.508V250.057ZM204.433 384.676H161.225L240.994 152H284.204L204.433 384.676ZM490.866 201.554H361.599C354.393 201.554 348.745 203.745 344.655 208.127C340.663 212.509 338.666 218.304 338.666 225.51C338.666 232.813 340.663 238.607 344.655 242.892C348.745 247.079 354.393 249.174 361.599 249.174H449.237C453.327 249.271 457.66 249.855 462.236 250.926C466.813 251.9 471.342 253.458 475.821 255.601C480.398 257.743 484.731 260.47 488.82 263.78C492.91 266.994 496.514 270.89 499.63 275.467C502.843 280.044 505.375 285.302 507.225 291.242C509.075 297.182 510 303.902 510 311.4C510 318.899 509.027 325.667 507.079 331.704C505.229 337.644 502.746 342.904 499.63 347.48C496.514 352.057 492.861 355.953 488.674 359.166C484.487 362.379 480.154 365.008 475.675 367.053C471.196 369.098 466.619 370.608 461.945 371.582C457.369 372.556 453.035 373.042 448.945 373.042H302.442V335.063H448.945C456.248 335.063 461.896 332.921 465.889 328.637C469.978 324.352 472.023 318.606 472.023 311.4C472.023 307.895 471.487 304.68 470.416 301.759C469.345 298.838 467.787 296.305 465.742 294.163C463.795 292.021 461.36 290.366 458.439 289.197C455.616 288.029 452.451 287.444 448.945 287.444H361.599C355.464 287.444 348.842 286.373 341.734 284.23C334.626 281.991 328.004 278.436 321.869 273.567C315.832 268.698 310.768 262.32 306.679 254.433C302.686 246.545 300.689 236.903 300.689 225.51C300.689 214.116 302.686 204.524 306.679 196.733C310.768 188.846 315.832 182.468 321.869 177.599C328.004 172.632 334.626 169.077 341.734 166.935C348.842 164.695 355.464 163.575 361.599 163.575H490.866V201.554Z" fill="white"/>
</svg>
