<svg width="512" height="512" viewBox="0 0 512 512" fill="none" xmlns="http://www.w3.org/2000/svg">
<g clip-path="url(#clip0_33_28)">
<path d="M55.6879 285.7L129.938 333.55V374.8L17.7379 302.2V269.2L129.938 196.6V237.85L55.6879 285.7Z" fill="#FFA600"/>
<path d="M270.123 140.5L190.923 371.5H148.023L227.223 140.5H270.123Z" fill="#FF4000"/>
<path d="M494.727 299.184C494.727 306.703 493.75 313.49 491.797 319.545C489.941 325.502 487.451 330.775 484.326 335.365C481.201 339.955 477.539 343.861 473.34 347.084C469.141 350.307 464.795 352.943 460.303 354.994C455.811 357.045 451.221 358.559 446.533 359.535C441.943 360.512 437.598 361 433.496 361H286.572V322.914H433.496C440.82 322.914 446.484 320.766 450.488 316.469C454.59 312.172 456.641 306.41 456.641 299.184C456.641 295.668 456.104 292.445 455.029 289.516C453.955 286.586 452.393 284.047 450.342 281.898C448.389 279.75 445.947 278.09 443.018 276.918C440.186 275.746 437.012 275.16 433.496 275.16H345.898C339.746 275.16 333.105 274.086 325.977 271.938C318.848 269.691 312.207 266.127 306.055 261.244C300 256.361 294.922 249.965 290.82 242.055C286.816 234.145 284.814 224.477 284.814 213.051C284.814 201.625 286.816 192.006 290.82 184.193C294.922 176.283 300 169.887 306.055 165.004C312.207 160.023 318.848 156.459 325.977 154.311C333.105 152.064 339.746 150.941 345.898 150.941H475.537V189.027H345.898C338.672 189.027 333.008 191.225 328.906 195.619C324.902 200.014 322.9 205.824 322.9 213.051C322.9 220.375 324.902 226.186 328.906 230.482C333.008 234.682 338.672 236.781 345.898 236.781H433.496H433.789C437.891 236.879 442.236 237.465 446.826 238.539C451.416 239.516 455.957 241.078 460.449 243.227C465.039 245.375 469.385 248.109 473.486 251.43C477.588 254.652 481.201 258.559 484.326 263.148C487.549 267.738 490.088 273.012 491.943 278.969C493.799 284.926 494.727 291.664 494.727 299.184Z" fill="black"/>
</g>
<defs>
<clipPath id="clip0_33_28">
<rect width="512" height="231" fill="white" transform="translate(0 140.5)"/>
</clipPath>
</defs>
</svg>
