<svg width="540" height="540" viewBox="0 0 540 540" fill="none" xmlns="http://www.w3.org/2000/svg">
<rect width="540" height="540" fill="#1E1E1E"/>
<path d="M93.4455 294.662L158.882 336.732V373L60 309.169V280.155L158.882 216.324V252.592L93.4455 294.662Z" fill="#FFA600"/>
<path d="M282.428 167L212.629 370.099H174.821L244.62 167H282.428Z" fill="#FF4000"/>
<path d="M480 306.137C480 312.682 479.148 318.59 477.444 323.86C475.825 329.045 473.652 333.635 470.926 337.631C468.199 341.626 465.004 345.026 461.34 347.831C457.676 350.636 453.885 352.931 449.966 354.716C446.046 356.501 442.042 357.819 437.952 358.669C433.947 359.519 430.156 359.944 426.577 359.944H298.387V326.793H426.577C432.967 326.793 437.909 324.923 441.402 321.183C444.981 317.443 446.77 312.427 446.77 306.137C446.77 303.077 446.302 300.272 445.364 297.722C444.427 295.172 443.064 292.962 441.275 291.092C439.571 289.222 437.44 287.777 434.884 286.757C432.413 285.737 429.644 285.227 426.577 285.227H350.149C344.781 285.227 338.987 284.292 332.767 282.422C326.547 280.467 320.753 277.364 315.385 273.114C310.103 268.864 305.672 263.296 302.094 256.411C298.6 249.526 296.854 241.111 296.854 231.165C296.854 221.22 298.6 212.847 302.094 206.047C305.672 199.162 310.103 193.594 315.385 189.344C320.753 185.009 326.547 181.907 332.767 180.037C338.987 178.081 344.781 177.104 350.149 177.104H463.257V210.255H350.149C343.844 210.255 338.902 212.167 335.323 215.992C331.83 219.818 330.083 224.875 330.083 231.165C330.083 237.54 331.83 242.598 335.323 246.338C338.902 249.993 343.844 251.821 350.149 251.821H426.833C430.411 251.906 434.203 252.416 438.207 253.351C442.212 254.201 446.174 255.561 450.093 257.431C454.098 259.301 457.889 261.681 461.468 264.571C465.047 267.376 468.199 270.776 470.926 274.771C473.737 278.767 475.953 283.357 477.572 288.542C479.191 293.727 480 299.592 480 306.137Z" fill="white"/>
</svg>
